<svg width="84" height="90" viewBox="0 0 84 90" fill="none" xmlns="http://www.w3.org/2000/svg">
<g filter="url(#filter0_d_146_30393)">
<path fill-rule="evenodd" clip-rule="evenodd" d="M20 40C20 30.1924 20 25.2886 22.0183 21.5924C23.5342 18.8162 25.8162 16.5342 28.5924 15.0183C32.2886 13 37.1924 13 47 13C56.8076 13 61.7114 13 65.4076 15.0183C68.1838 16.5342 70.4658 18.8162 71.9817 21.5924C74 25.2886 74 30.1924 74 40V46C74 55.8076 74 60.7114 71.9817 64.4076C70.4658 67.1838 68.1838 69.4658 65.4076 70.9817C61.7114 73 56.8076 73 47 73C37.1924 73 32.2886 73 28.5924 70.9817C25.8162 69.4658 23.5342 67.1838 22.0183 64.4076C20 60.7114 20 55.8076 20 46V40ZM39.4688 29.5629C40.2625 28.7172 41.5914 28.6751 42.4371 29.4688C43.2828 30.2625 43.3249 31.5914 42.5312 32.4371L41 31L39.4688 29.5629ZM41 31L42.5311 32.4372L42.5309 32.4375L42.53 32.4384L42.5268 32.4419L42.5143 32.4551L42.4663 32.5062L42.2852 32.6985C42.1292 32.8639 41.9063 33.0999 41.6378 33.3829C41.1011 33.9485 40.3802 34.7043 39.6462 35.4616C38.9154 36.2156 38.1589 36.9842 37.5554 37.5697C37.2572 37.859 36.9735 38.1259 36.7392 38.329C36.6266 38.4266 36.4897 38.5408 36.3491 38.6412C36.2818 38.6893 36.17 38.7659 36.0313 38.8392L36.0243 38.843C35.952 38.8819 35.5473 39.1 35 39.1C34.4186 39.1 33.9892 38.8599 33.8925 38.8058L33.8852 38.8018C33.72 38.71 33.5821 38.6101 33.4893 38.5391C33.2976 38.3924 33.104 38.2183 32.9357 38.0598C32.5896 37.7337 32.1911 37.3214 31.8305 36.9371C31.4642 36.5469 31.1126 36.1595 30.8541 35.8715C30.7244 35.727 30.6171 35.6063 30.5419 35.5214L30.4541 35.4221L30.4303 35.3951L30.4239 35.3878L30.4221 35.3857L30.4215 35.3851L30.4213 35.3849L32 34L30.4212 35.3847C29.6565 34.5128 29.7433 33.186 30.6153 32.4212C31.4872 31.6565 32.8139 31.7433 33.5787 32.6152L33.5788 32.6153L33.5789 32.6154L33.5799 32.6166L33.5848 32.6221L33.6052 32.6453L33.6857 32.7364C33.7558 32.8155 33.857 32.9293 33.9797 33.066C34.2261 33.3405 34.5553 33.7031 34.893 34.0629L35.008 34.185C35.4947 33.7027 36.0617 33.1251 36.6304 32.5384C37.3503 31.7957 38.0602 31.0515 38.5909 30.4921C38.8561 30.2126 39.076 29.9799 39.2294 29.8171L39.407 29.6286L39.4534 29.5793L39.4651 29.5668L39.4679 29.5638L39.4686 29.5631L39.4688 29.5629L41 31ZM41 52L42.5312 53.4371C43.3249 52.5914 43.2828 51.2625 42.4371 50.4688C41.5914 49.6751 40.2625 49.7172 39.4688 50.5629L41 52ZM41 52L42.5311 53.4372L42.5309 53.4375L42.53 53.4384L42.5268 53.4419L42.5143 53.4551L42.4663 53.5062L42.2852 53.6985C42.1292 53.8639 41.9063 54.0999 41.6378 54.3829C41.1011 54.9485 40.3802 55.7043 39.6462 56.4616C38.9154 57.2156 38.1589 57.9842 37.5554 58.5697C37.2572 58.859 36.9735 59.1259 36.7392 59.329C36.6266 59.4266 36.4897 59.5408 36.3491 59.6412C36.2818 59.6893 36.17 59.7659 36.0313 59.8392L36.0243 59.843C35.952 59.8819 35.5473 60.1 35 60.1C34.4186 60.1 33.9892 59.8599 33.8925 59.8058L33.8852 59.8018C33.72 59.71 33.5821 59.6101 33.4893 59.5391C33.2976 59.3924 33.104 59.2183 32.9357 59.0598C32.5896 58.7337 32.1911 58.3214 31.8305 57.9371C31.4642 57.5469 31.1126 57.1595 30.8541 56.8715C30.7244 56.727 30.6171 56.6063 30.5419 56.5214L30.4541 56.4221L30.4303 56.3951L30.4239 56.3878L30.4221 56.3857L30.4215 56.3851L30.4213 56.3849L32 55L30.4212 56.3847C29.6565 55.5128 29.7433 54.186 30.6153 53.4212C31.4872 52.6565 32.8139 52.7433 33.5787 53.6152L33.5788 53.6153L33.5789 53.6154L33.5799 53.6166L33.5848 53.6221L33.6052 53.6453L33.6857 53.7364C33.7558 53.8155 33.857 53.9293 33.9797 54.066C34.2261 54.3405 34.5553 54.7031 34.893 55.0629L35.008 55.185C35.4947 54.7027 36.0617 54.1251 36.6304 53.5384C37.3503 52.7957 38.0602 52.0515 38.5909 51.4921C38.8561 51.2126 39.076 50.9799 39.2294 50.8171L39.407 50.6286L39.4534 50.5793L39.4651 50.5668L39.4679 50.5638L39.4686 50.563L39.4688 50.5629L41 52ZM64.1 56.5C64.1 57.6598 63.1598 58.6 62 58.6H50C48.8402 58.6 47.9 57.6598 47.9 56.5C47.9 55.3402 48.8402 54.4 50 54.4H62C63.1598 54.4 64.1 55.3402 64.1 56.5ZM62 37.6C63.1598 37.6 64.1 36.6598 64.1 35.5C64.1 34.3402 63.1598 33.4 62 33.4H50C48.8402 33.4 47.9 34.3402 47.9 35.5C47.9 36.6598 48.8402 37.6 50 37.6H62Z" fill="url(#paint0_linear_146_30393)"/>
</g>
<defs>
<filter id="filter0_d_146_30393" x="0" y="0" width="84" height="90" filterUnits="userSpaceOnUse" color-interpolation-filters="sRGB">
<feFlood flood-opacity="0" result="BackgroundImageFix"/>
<feColorMatrix in="SourceAlpha" type="matrix" values="0 0 0 0 0 0 0 0 0 0 0 0 0 0 0 0 0 0 127 0" result="hardAlpha"/>
<feOffset dx="-5" dy="2"/>
<feGaussianBlur stdDeviation="7.5"/>
<feComposite in2="hardAlpha" operator="out"/>
<feColorMatrix type="matrix" values="0 0 0 0 0.737255 0 0 0 0 0.976471 0 0 0 0 0.223529 0 0 0 0.26 0"/>
<feBlend mode="normal" in2="BackgroundImageFix" result="effect1_dropShadow_146_30393"/>
<feBlend mode="normal" in="SourceGraphic" in2="effect1_dropShadow_146_30393" result="shape"/>
</filter>
<linearGradient id="paint0_linear_146_30393" x1="47" y1="13" x2="47" y2="73" gradientUnits="userSpaceOnUse">
<stop stop-color="#CAFF35"/>
<stop offset="1" stop-color="#00A660"/>
</linearGradient>
</defs>
</svg>
