<svg width="24" height="24" viewBox="0 0 24 24" fill="none" xmlns="http://www.w3.org/2000/svg">
<g id="Bold/ Collateral">
<path id="Union" fill-rule="evenodd" clip-rule="evenodd" d="M12 22C17.5228 22 22 17.5228 22 12C22 6.47715 17.5228 2 12 2C6.47715 2 2 6.47715 2 12C2 17.5228 6.47715 22 12 22ZM15.3924 8.42033C15.7126 8.63706 15.7964 9.07228 15.5797 9.39241L15 8.99999L14.4203 8.60757C14.6371 8.28743 15.0723 8.2036 15.3924 8.42033ZM14.4203 8.60761L15 8.99999L15.5796 9.3925L15.5795 9.3927L15.5789 9.3935L15.5769 9.39656L15.5688 9.40851L15.5373 9.45485L15.4182 9.63017C15.3154 9.78109 15.1685 9.99657 14.9913 10.2551C14.6371 10.772 14.1614 11.4618 13.6766 12.1522C13.1928 12.8413 12.6961 13.5364 12.301 14.0615C12.1046 14.3225 11.9263 14.551 11.7839 14.7179C11.7143 14.7995 11.6414 14.8805 11.5723 14.9461C11.539 14.9776 11.4905 15.0211 11.432 15.0613C11.4026 15.0815 11.357 15.1104 11.2986 15.1362C11.2465 15.1592 11.1399 15.2 11 15.2C10.8054 15.2 10.6564 15.1236 10.6058 15.0969C10.5336 15.0589 10.4687 15.0142 10.4171 14.9759C10.3124 14.8981 10.2002 14.7993 10.0927 14.6987C9.87434 14.4945 9.61997 14.2305 9.38392 13.9769C9.14581 13.7211 8.91753 13.4664 8.74935 13.2763C8.66509 13.1811 8.59553 13.1017 8.5469 13.0459L8.49035 12.9808L8.47526 12.9634L8.47126 12.9587L8.47018 12.9575L8.46987 12.9571L8.46978 12.957L9 12.5L8.46972 12.9569C8.21735 12.6641 8.25018 12.2221 8.54305 11.9697C8.83591 11.7174 9.27789 11.7502 9.53026 12.043L9.53027 12.043L9.53028 12.043L9.53029 12.043L9.53045 12.0432L9.53124 12.0442L9.53465 12.0481L9.54849 12.0641L9.60229 12.126C9.64899 12.1796 9.71623 12.2564 9.79787 12.3486C9.96147 12.5336 10.1813 12.7788 10.4087 13.023C10.5883 13.216 10.7673 13.4026 10.9242 13.5565C11.0012 13.4584 11.0876 13.3456 11.1823 13.2198C11.5632 12.7136 12.0492 12.0337 12.5308 11.3477C13.0115 10.6632 13.4839 9.97802 13.8365 9.46363C14.0127 9.20654 14.1588 8.99233 14.2608 8.84247L14.3789 8.66867L14.4099 8.62302L14.4177 8.6114L14.4197 8.60849L14.4202 8.60778L14.4203 8.60761Z" fill="url(#paint0_linear_521_14398)"/>
</g>
<defs>
<linearGradient id="paint0_linear_521_14398" x1="17.5" y1="3" x2="4" y2="20" gradientUnits="userSpaceOnUse">
<stop stop-color="#24FF00"/>
<stop offset="1" stop-color="#34C759"/>
</linearGradient>
</defs>
</svg>
