<svg width="178" height="178" viewBox="0 0 178 178" fill="none" xmlns="http://www.w3.org/2000/svg">
<g clip-path="url(#clip0_52_4654)">
<rect width="178" height="178" fill="url(#paint0_linear_52_4654)"/>
<g filter="url(#filter0_f_52_4654)">
<ellipse cx="67.4895" cy="73.4355" rx="37.4895" ry="37.4355" fill="#FFC701" fill-opacity="0.5"/>
</g>
<path d="M102.747 74.6632C102.747 94.1068 86.9621 109.871 67.487 109.871C48.0118 109.871 32.2266 94.1068 32.2266 74.6632C32.2266 55.2197 48.0118 39.4551 67.487 39.4551C86.9621 39.4551 102.747 55.2197 102.747 74.6632Z" fill="url(#paint1_linear_52_4654)" stroke="url(#paint2_linear_52_4654)" stroke-width="2"/>
<mask id="mask0_52_4654" style="mask-type:alpha" maskUnits="userSpaceOnUse" x="31" y="58" width="73" height="53">
<path d="M103.747 74.6637C103.747 94.6609 87.5131 110.872 67.487 110.872C47.4609 110.872 31.2266 94.6609 31.2266 74.6637C31.2266 54.6665 44.6953 59.3213 64.7214 59.3213C84.7474 59.3213 103.747 54.6665 103.747 74.6637Z" fill="url(#paint3_linear_52_4654)"/>
</mask>
<g mask="url(#mask0_52_4654)">
<g filter="url(#filter1_f_52_4654)">
<path fill-rule="evenodd" clip-rule="evenodd" d="M122.802 140.944C122.802 155.518 110.97 167.333 96.3751 167.333C96.2726 167.333 96.1702 167.332 96.0679 167.331V167.333H3.26578L3.26662 167.332C3.16399 167.333 3.06122 167.333 2.95831 167.333C-11.637 167.333 -23.4688 155.519 -23.4688 140.944C-23.4688 126.37 -11.637 114.555 2.95831 114.555C15.5389 114.555 26.0663 123.334 28.7329 135.091L37.6825 123.76L65.646 114.555H96.0679V114.556C96.1702 114.555 96.2726 114.555 96.3751 114.555C110.97 114.555 122.802 126.369 122.802 140.944Z" fill="#E18700"/>
</g>
</g>
<g filter="url(#filter2_bd_52_4654)">
<mask id="path-5-inside-1_52_4654" fill="white">
<path fill-rule="evenodd" clip-rule="evenodd" d="M128.676 142.998C128.75 142.999 128.825 142.999 128.899 142.999C139.447 142.999 147.997 134.461 147.997 123.928C147.997 113.396 139.447 104.857 128.899 104.857C128.825 104.857 128.75 104.858 128.676 104.859V104.857H123.743C123.921 103.552 124.013 102.22 124.013 100.866C124.013 84.6992 110.889 71.5938 94.699 71.5938C78.5093 71.5938 65.3849 84.6992 65.3849 100.866C65.3849 102.391 65.5018 103.889 65.727 105.352C64.3329 105.028 62.8803 104.857 61.3876 104.857C50.8398 104.857 42.2891 113.396 42.2891 123.928C42.2891 134.461 50.8398 142.999 61.3876 142.999C61.462 142.999 61.5362 142.999 61.6103 142.998L61.6093 142.999H128.676V142.998Z"/>
</mask>
<path fill-rule="evenodd" clip-rule="evenodd" d="M128.676 142.998C128.75 142.999 128.825 142.999 128.899 142.999C139.447 142.999 147.997 134.461 147.997 123.928C147.997 113.396 139.447 104.857 128.899 104.857C128.825 104.857 128.75 104.858 128.676 104.859V104.857H123.743C123.921 103.552 124.013 102.22 124.013 100.866C124.013 84.6992 110.889 71.5938 94.699 71.5938C78.5093 71.5938 65.3849 84.6992 65.3849 100.866C65.3849 102.391 65.5018 103.889 65.727 105.352C64.3329 105.028 62.8803 104.857 61.3876 104.857C50.8398 104.857 42.2891 113.396 42.2891 123.928C42.2891 134.461 50.8398 142.999 61.3876 142.999C61.462 142.999 61.5362 142.999 61.6103 142.998L61.6093 142.999H128.676V142.998Z" fill="url(#paint4_linear_52_4654)" shape-rendering="crispEdges"/>
<path d="M128.676 142.998L128.699 140.998C128.165 140.992 127.65 141.2 127.27 141.576C126.89 141.952 126.676 142.464 126.676 142.998H128.676ZM128.676 104.859H126.676C126.676 105.393 126.89 105.905 127.27 106.281C127.65 106.657 128.165 106.865 128.699 106.859L128.676 104.859ZM128.676 104.857H130.676C130.676 103.753 129.781 102.857 128.676 102.857V104.857ZM123.743 104.857L121.761 104.587C121.683 105.159 121.856 105.737 122.236 106.172C122.616 106.608 123.165 106.857 123.743 106.857V104.857ZM65.727 105.352L65.275 107.3C65.9216 107.45 66.6005 107.27 67.0871 106.818C67.5738 106.367 67.8048 105.703 67.7037 105.047L65.727 105.352ZM61.6103 142.998L63.1781 144.24C63.6569 143.636 63.7456 142.81 63.4059 142.117C63.0662 141.425 62.3587 140.99 61.5875 140.998L61.6103 142.998ZM61.6093 142.999L60.0416 141.758C59.5653 142.359 59.4749 143.18 59.8088 143.87C60.1428 144.561 60.8423 144.999 61.6093 144.999V142.999ZM128.676 142.999V144.999C129.781 144.999 130.676 144.104 130.676 142.999H128.676ZM128.653 144.998C128.735 144.999 128.817 144.999 128.899 144.999V140.999C128.832 140.999 128.766 140.999 128.699 140.998L128.653 144.998ZM128.899 144.999C140.549 144.999 149.997 135.568 149.997 123.928H145.997C145.997 133.354 138.345 140.999 128.899 140.999V144.999ZM149.997 123.928C149.997 112.289 140.549 102.857 128.899 102.857V106.857C138.345 106.857 145.997 114.503 145.997 123.928H149.997ZM128.899 102.857C128.817 102.857 128.735 102.858 128.653 102.859L128.699 106.859C128.766 106.858 128.832 106.857 128.899 106.857V102.857ZM126.676 104.857V104.859H130.676V104.857H126.676ZM123.743 106.857H128.676V102.857H123.743V106.857ZM125.724 105.128C125.915 103.733 126.013 102.31 126.013 100.866H122.013C122.013 102.129 121.927 103.371 121.761 104.587L125.724 105.128ZM126.013 100.866C126.013 83.5919 111.991 69.5938 94.699 69.5938V73.5938C109.787 73.5938 122.013 85.8065 122.013 100.866H126.013ZM94.699 69.5938C77.4074 69.5938 63.3849 83.5919 63.3849 100.866H67.3849C67.3849 85.8065 79.6111 73.5938 94.699 73.5938V69.5938ZM63.3849 100.866C63.3849 102.493 63.5096 104.093 63.7504 105.656L67.7037 105.047C67.4939 103.685 67.3849 102.289 67.3849 100.866H63.3849ZM66.179 103.404C64.6378 103.046 63.0335 102.857 61.3876 102.857V106.857C62.7271 106.857 64.0281 107.011 65.275 107.3L66.179 103.404ZM61.3876 102.857C49.7379 102.857 40.2891 112.289 40.2891 123.928H44.2891C44.2891 114.503 51.9416 106.857 61.3876 106.857V102.857ZM40.2891 123.928C40.2891 135.568 49.7379 144.999 61.3876 144.999V140.999C51.9416 140.999 44.2891 133.354 44.2891 123.928H40.2891ZM61.3876 144.999C61.4695 144.999 61.5513 144.999 61.6332 144.998L61.5875 140.998C61.5211 140.999 61.4544 140.999 61.3876 140.999V144.999ZM63.1771 144.241L63.1781 144.24L60.0426 141.756L60.0416 141.758L63.1771 144.241ZM128.676 140.999H61.6093V144.999H128.676V140.999ZM126.676 142.998V142.999H130.676V142.998H126.676Z" fill="url(#paint5_linear_52_4654)" mask="url(#path-5-inside-1_52_4654)"/>
</g>
</g>
<defs>
<filter id="filter0_f_52_4654" x="-14" y="-8" width="162.977" height="162.871" filterUnits="userSpaceOnUse" color-interpolation-filters="sRGB">
<feFlood flood-opacity="0" result="BackgroundImageFix"/>
<feBlend mode="normal" in="SourceGraphic" in2="BackgroundImageFix" result="shape"/>
<feGaussianBlur stdDeviation="22" result="effect1_foregroundBlur_52_4654"/>
</filter>
<filter id="filter1_f_52_4654" x="-37.4688" y="100.555" width="174.273" height="80.7793" filterUnits="userSpaceOnUse" color-interpolation-filters="sRGB">
<feFlood flood-opacity="0" result="BackgroundImageFix"/>
<feBlend mode="normal" in="SourceGraphic" in2="BackgroundImageFix" result="shape"/>
<feGaussianBlur stdDeviation="7" result="effect1_foregroundBlur_52_4654"/>
</filter>
<filter id="filter2_bd_52_4654" x="-28.7109" y="36.5938" width="205.711" height="171.406" filterUnits="userSpaceOnUse" color-interpolation-filters="sRGB">
<feFlood flood-opacity="0" result="BackgroundImageFix"/>
<feGaussianBlur in="BackgroundImageFix" stdDeviation="7"/>
<feComposite in2="SourceAlpha" operator="in" result="effect1_backgroundBlur_52_4654"/>
<feColorMatrix in="SourceAlpha" type="matrix" values="0 0 0 0 0 0 0 0 0 0 0 0 0 0 0 0 0 0 127 0" result="hardAlpha"/>
<feOffset dx="-21" dy="15"/>
<feGaussianBlur stdDeviation="25"/>
<feComposite in2="hardAlpha" operator="out"/>
<feColorMatrix type="matrix" values="0 0 0 0 0.113438 0 0 0 0 0.148981 0 0 0 0 0.275 0 0 0 0.25 0"/>
<feBlend mode="normal" in2="effect1_backgroundBlur_52_4654" result="effect2_dropShadow_52_4654"/>
<feBlend mode="normal" in="SourceGraphic" in2="effect2_dropShadow_52_4654" result="shape"/>
</filter>
<linearGradient id="paint0_linear_52_4654" x1="89" y1="0" x2="89" y2="178" gradientUnits="userSpaceOnUse">
<stop stop-color="#007BED"/>
<stop offset="1" stop-color="#00A3FF"/>
</linearGradient>
<linearGradient id="paint1_linear_52_4654" x1="67.487" y1="38.4551" x2="67.487" y2="110.871" gradientUnits="userSpaceOnUse">
<stop stop-color="#FFE600"/>
<stop offset="1" stop-color="#FF7A00"/>
</linearGradient>
<linearGradient id="paint2_linear_52_4654" x1="67.487" y1="38.4551" x2="67.487" y2="110.871" gradientUnits="userSpaceOnUse">
<stop stop-color="white"/>
<stop offset="1" stop-color="white" stop-opacity="0"/>
</linearGradient>
<linearGradient id="paint3_linear_52_4654" x1="67.487" y1="38.4556" x2="67.487" y2="110.872" gradientUnits="userSpaceOnUse">
<stop stop-color="#FFD600"/>
<stop offset="1" stop-color="#FF7A00"/>
</linearGradient>
<linearGradient id="paint4_linear_52_4654" x1="100.06" y1="73.7417" x2="100.06" y2="151.068" gradientUnits="userSpaceOnUse">
<stop stop-color="white"/>
<stop offset="1" stop-color="white" stop-opacity="0"/>
</linearGradient>
<linearGradient id="paint5_linear_52_4654" x1="95.1432" y1="71.5938" x2="95.1432" y2="142.999" gradientUnits="userSpaceOnUse">
<stop stop-color="white"/>
<stop offset="1" stop-color="white" stop-opacity="0"/>
</linearGradient>
<clipPath id="clip0_52_4654">
<rect width="178" height="178" fill="white"/>
</clipPath>
</defs>
</svg>
