<svg width="84" height="91" viewBox="0 0 84 91" fill="none" xmlns="http://www.w3.org/2000/svg">
<g id="Group" filter="url(#filter0_d_1_4)">
<path id="Vector" fill-rule="evenodd" clip-rule="evenodd" d="M20 40.5556C20 30.8569 20 26.0076 22.0183 22.3525C23.5342 19.6071 25.8162 17.3505 28.5924 15.8514C32.2886 13.8556 37.1924 13.8556 47 13.8556C56.8076 13.8556 61.7114 13.8556 65.4076 15.8514C68.1838 17.3505 70.4658 19.6071 71.9817 22.3525C74 26.0076 74 30.8569 74 40.5556V46.4889C74 56.1875 74 61.0368 71.9817 64.692C70.4658 67.4373 68.1838 69.694 65.4076 71.193C61.7114 73.1889 56.8076 73.1889 47 73.1889C37.1924 73.1889 32.2886 73.1889 28.5924 71.193C25.8162 69.694 23.5342 67.4373 22.0183 64.692C20 61.0368 20 56.1875 20 46.4889V40.5556ZM39.4688 30.2344C40.2625 29.3981 41.5914 29.3565 42.4371 30.1414C43.2828 30.9263 43.3249 32.2404 42.5312 33.0767L41 31.6556L39.4688 30.2344ZM41 31.6556L42.5312 33.0767L42.53 33.078L42.5268 33.0814L42.5143 33.0945L42.4663 33.145L42.2852 33.3352C42.1292 33.4988 41.9063 33.7321 41.6378 34.012C41.1011 34.5713 40.3802 35.3187 39.6462 36.0676C38.9154 36.8132 38.1589 37.5733 37.5554 38.1523C37.2572 38.4383 36.9735 38.7023 36.7392 38.9031C36.6266 38.9996 36.4897 39.1126 36.3491 39.2119C36.2818 39.2594 36.17 39.3352 36.0313 39.4077L36.0243 39.4114C35.952 39.4499 35.5473 39.6656 35 39.6656C34.4186 39.6656 33.9892 39.4281 33.8925 39.3746L33.8852 39.3707C33.72 39.2799 33.5821 39.1811 33.4893 39.1109C33.2976 38.9658 33.104 38.7937 32.9357 38.6369C32.5896 38.3144 32.1911 37.9067 31.8305 37.5267C31.4642 37.1408 31.1126 36.7577 30.8541 36.4729C30.7244 36.33 30.6171 36.2107 30.5419 36.1267L30.4541 36.0285L30.4303 36.0018L30.4239 35.9946L30.4221 35.9925L30.4213 35.9917C29.6566 35.1295 29.7433 33.8173 30.6153 33.061C31.4872 32.3048 32.8139 32.3906 33.5787 33.2528L33.5799 33.2542L33.5848 33.2596L33.6052 33.2826L33.6857 33.3727C33.7558 33.4509 33.857 33.5634 33.9797 33.6986C34.2261 33.9701 34.5553 34.3286 34.893 34.6844L35.008 34.8052C35.4947 34.3282 36.0617 33.757 36.6304 33.1769C37.3503 32.4424 38.0602 31.7065 38.5909 31.1533C38.8561 30.8769 39.076 30.6468 39.2294 30.4858L39.407 30.2994L39.4534 30.2506L39.4651 30.2383L39.4679 30.2353L39.4688 30.2344L41 31.6556ZM41 52.4222L42.5312 53.8434C43.3249 53.0071 43.2828 51.6929 42.4371 50.908C41.5914 50.1232 40.2625 50.1648 39.4688 51.0011L41 52.4222ZM41 52.4222L42.5312 53.8434L42.53 53.8446L42.5268 53.8481L42.5143 53.8612L42.4663 53.9117L42.2852 54.1019C42.1292 54.2654 41.9063 54.4988 41.6378 54.7786C41.1011 55.338 40.3802 56.0854 39.6462 56.8343C38.9154 57.5799 38.1589 58.3399 37.5554 58.9189C37.2572 59.205 36.9735 59.4689 36.7392 59.6698C36.6266 59.7663 36.4897 59.8792 36.3491 59.9785C36.2818 60.0261 36.17 60.1018 36.0313 60.1743L36.0243 60.1781C35.952 60.2165 35.5473 60.4322 35 60.4322C34.4186 60.4322 33.9892 60.1948 33.8925 60.1413L33.8852 60.1373C33.72 60.0466 33.5821 59.9478 33.4893 59.8776C33.2976 59.7325 33.104 59.5603 32.9357 59.4036C32.5896 59.0811 32.1911 58.6734 31.8305 58.2934C31.4642 57.9075 31.1126 57.5244 30.8541 57.2396C30.7244 57.0967 30.6171 56.9773 30.5419 56.8934L30.4541 56.7952L30.4303 56.7685L30.4239 56.7613L30.4221 56.7592L30.4213 56.7584C29.6566 55.8962 29.7433 54.5839 30.6153 53.8276C31.4872 53.0714 32.8139 53.1573 33.5787 54.0195L33.5799 54.0209L33.5848 54.0263L33.6052 54.0492L33.6857 54.1393C33.7558 54.2176 33.857 54.3301 33.9797 54.4653C34.2261 54.7367 34.5553 55.0953 34.893 55.4511L35.008 55.5718C35.4947 55.0949 36.0617 54.5237 36.6304 53.9435C37.3503 53.2091 38.0602 52.4732 38.5909 51.92C38.8561 51.6436 39.076 51.4135 39.2294 51.2525L39.407 51.0661L39.4534 51.0173L39.4651 51.0049L39.4679 51.002L39.4688 51.0011L41 52.4222ZM64.1 56.8722C64.1 58.0191 63.1598 58.9489 62 58.9489H50C48.8402 58.9489 47.9 58.0191 47.9 56.8722C47.9 55.7253 48.8402 54.7956 50 54.7956H62C63.1598 54.7956 64.1 55.7253 64.1 56.8722ZM62 38.1822C63.1598 38.1822 64.1 37.2525 64.1 36.1056C64.1 34.9586 63.1598 34.0289 62 34.0289H50C48.8402 34.0289 47.9 34.9586 47.9 36.1056C47.9 37.2525 48.8402 38.1822 50 38.1822H62Z" fill="url(#paint0_linear_1_4)"/>
</g>
<defs>
<filter id="filter0_d_1_4" x="0" y="0.85556" width="84" height="89.3333" filterUnits="userSpaceOnUse" color-interpolation-filters="sRGB">
<feFlood flood-opacity="0" result="BackgroundImageFix"/>
<feColorMatrix in="SourceAlpha" type="matrix" values="0 0 0 0 0 0 0 0 0 0 0 0 0 0 0 0 0 0 127 0" result="hardAlpha"/>
<feOffset dx="-5" dy="2"/>
<feGaussianBlur stdDeviation="7.5"/>
<feComposite in2="hardAlpha" operator="out"/>
<feColorMatrix type="matrix" values="0 0 0 0 0.737255 0 0 0 0 0.976471 0 0 0 0 0.223529 0 0 0 0.26 0"/>
<feBlend mode="normal" in2="BackgroundImageFix" result="effect1_dropShadow_1_4"/>
<feBlend mode="normal" in="SourceGraphic" in2="effect1_dropShadow_1_4" result="shape"/>
</filter>
<linearGradient id="paint0_linear_1_4" x1="47" y1="13.8556" x2="47" y2="73.1889" gradientUnits="userSpaceOnUse">
<stop stop-color="#CAFF35"/>
<stop offset="1" stop-color="#00A660"/>
</linearGradient>
</defs>
</svg>
