<svg width="136" height="135" viewBox="0 0 136 135" fill="none" xmlns="http://www.w3.org/2000/svg">
<g id="Ticks">
<path d="M60.2436 0.528388C60.2256 0.270353 60.4201 0.0465473 60.6782 0.0285037C60.9362 0.0104601 61.16 0.205012 61.178 0.463046L61.6354 7.00404C61.6535 7.26207 61.4589 7.48588 61.2009 7.50392C60.9429 7.52196 60.7191 7.32741 60.701 7.06938L60.2436 0.528388Z" fill="black"/>
<path d="M75.2297 0.532504C75.2477 0.274469 75.0531 0.0506637 74.7951 0.0326201C74.5371 0.0145765 74.3133 0.209128 74.2952 0.467163L73.8378 7.00815C73.8198 7.26619 74.0143 7.48999 74.2724 7.50804C74.5304 7.52608 74.7542 7.33153 74.7723 7.07349L75.2297 0.532504Z" fill="black"/>
<path d="M82.2063 0.623951C82.2512 0.369216 82.0811 0.1263 81.8264 0.0813833C81.5717 0.0364666 81.3288 0.206558 81.2838 0.461294L80.1452 6.91864C80.1003 7.17338 80.2704 7.41629 80.5251 7.46121C80.7799 7.50613 81.0228 7.33603 81.0677 7.0813L82.2063 0.623951Z" fill="black"/>
<path d="M53.331 0.623951C53.2861 0.369216 53.4562 0.1263 53.7109 0.0813833C53.9656 0.0364666 54.2086 0.206558 54.2535 0.461294L55.3921 6.91864C55.437 7.17338 55.2669 7.41629 55.0122 7.46121C54.7574 7.50613 54.5145 7.33603 54.4696 7.0813L53.331 0.623951Z" fill="black"/>
<path d="M45.4324 0.913786C45.3524 0.667781 45.4871 0.403557 45.7331 0.323625C45.9791 0.243693 46.2433 0.378322 46.3232 0.624327L48.3494 6.86037C48.4294 7.10637 48.2948 7.3706 48.0487 7.45053C47.8027 7.53046 47.5385 7.39583 47.4586 7.14983L45.4324 0.913786Z" fill="black"/>
<path d="M89.9174 0.913786C89.9973 0.667781 89.8627 0.403557 89.6167 0.323625C89.3707 0.243693 89.1065 0.378322 89.0265 0.624327L87.0003 6.86037C86.9204 7.10637 87.055 7.3706 87.301 7.45053C87.547 7.53046 87.8113 7.39583 87.8912 7.14983L89.9174 0.913786Z" fill="black"/>
<path d="M97.7093 0.808858C97.8145 0.572556 97.7082 0.295707 97.4719 0.190499C97.2356 0.0852901 96.9587 0.191563 96.8535 0.427865L93.997 6.84376C93.8918 7.08007 93.9981 7.35692 94.2344 7.46212C94.4707 7.56733 94.7475 7.46106 94.8527 7.22476L97.7093 0.808858Z" fill="black"/>
<path d="M116.671 0.963093C116.823 0.753828 116.776 0.460933 116.567 0.308894C116.358 0.156854 116.065 0.203244 115.913 0.412509L110.957 7.23337C110.805 7.44263 110.851 7.73553 111.061 7.88757C111.27 8.03961 111.563 7.99322 111.715 7.78395L116.671 0.963093Z" fill="black"/>
<path d="M135.162 19.1016C135.374 18.9532 135.425 18.6612 135.277 18.4493C135.129 18.2374 134.837 18.1859 134.625 18.3343L127.719 23.1698C127.507 23.3181 127.455 23.6102 127.604 23.8221C127.752 24.0339 128.044 24.0854 128.256 23.9371L135.162 19.1016Z" fill="black"/>
<path d="M134.014 8.73765C134.209 8.56795 134.23 8.27213 134.06 8.07691C133.89 7.88169 133.595 7.86101 133.399 8.03071L127.673 13.0082C127.478 13.1779 127.457 13.4737 127.627 13.669C127.797 13.8642 128.093 13.8849 128.288 13.7152L134.014 8.73765Z" fill="black"/>
<path d="M127.43 1.92435C127.61 1.73828 127.605 1.44178 127.419 1.2621C127.233 1.08241 126.936 1.08759 126.756 1.27366L121.486 6.73128C121.306 6.91735 121.311 7.21385 121.498 7.39354C121.684 7.57322 121.98 7.56804 122.16 7.38198L127.43 1.92435Z" fill="black"/>
<path d="M18.6911 0.963093C18.5391 0.753828 18.5855 0.460933 18.7947 0.308894C19.004 0.156854 19.2969 0.203244 19.4489 0.412509L24.4046 7.23337C24.5566 7.44263 24.5102 7.73553 24.3009 7.88757C24.0917 8.03961 23.7988 7.99322 23.6467 7.78395L18.6911 0.963093Z" fill="black"/>
<path d="M0.199758 19.1016C-0.0121284 18.9532 -0.0636231 18.6612 0.0847411 18.4493C0.233105 18.2374 0.525146 18.1859 0.737032 18.3343L7.64279 23.1698C7.85468 23.3181 7.90617 23.6102 7.75781 23.8221C7.60945 24.0339 7.31741 24.0854 7.10552 23.9371L0.199758 19.1016Z" fill="black"/>
<path d="M1.34778 8.73765C1.15256 8.56795 1.13188 8.27213 1.30158 8.07691C1.47128 7.88169 1.7671 7.86101 1.96232 8.03071L7.68829 13.0082C7.88351 13.1779 7.9042 13.4737 7.7345 13.669C7.5648 13.8642 7.26897 13.8849 7.07376 13.7152L1.34778 8.73765Z" fill="black"/>
<path d="M0.748352 38.1383C0.514885 38.027 0.415896 37.7474 0.527254 37.514C0.638612 37.2805 0.918148 37.1815 1.15162 37.2929L7.99952 40.5592C8.23299 40.6705 8.33198 40.9501 8.22062 41.1835C8.10926 41.417 7.82973 41.516 7.59626 41.4046L0.748352 38.1383Z" fill="black"/>
<path d="M0.78401 45.9323C0.539438 45.8481 0.409441 45.5816 0.493654 45.337C0.577867 45.0924 0.844401 44.9624 1.08897 45.0466L7.85808 47.3774C8.10265 47.4616 8.23265 47.7282 8.14843 47.9727C8.06422 48.2173 7.79769 48.3473 7.55311 48.2631L0.78401 45.9323Z" fill="black"/>
<path d="M0.780083 53.6771C0.52707 53.6233 0.36556 53.3746 0.41934 53.1216C0.473119 52.8686 0.721823 52.7071 0.974836 52.7608L7.75432 54.2019C8.00733 54.2556 8.16884 54.5043 8.11506 54.7574C8.06129 55.0104 7.81258 55.1719 7.55957 55.1181L0.780083 53.6771Z" fill="black"/>
<path d="M0.792194 60.9234C0.534513 60.9008 0.343898 60.6736 0.366442 60.416C0.388986 60.1583 0.616153 59.9677 0.873834 59.9902L7.7784 60.5943C8.03608 60.6168 8.2267 60.844 8.20415 61.1017C8.18161 61.3594 7.95444 61.55 7.69676 61.5274L0.792194 60.9234Z" fill="black"/>
<path d="M134.785 38.1383C135.019 38.027 135.118 37.7474 135.006 37.514C134.895 37.2805 134.615 37.1815 134.382 37.2929L127.534 40.5592C127.301 40.6705 127.202 40.9501 127.313 41.1835C127.424 41.417 127.704 41.516 127.937 41.4046L134.785 38.1383Z" fill="black"/>
<path d="M134.75 45.9323C134.994 45.8481 135.124 45.5816 135.04 45.337C134.956 45.0924 134.689 44.9624 134.445 45.0466L127.676 47.3774C127.431 47.4616 127.301 47.7282 127.385 47.9727C127.469 48.2173 127.736 48.3473 127.981 48.2631L134.75 45.9323Z" fill="black"/>
<path d="M134.754 53.6771C135.007 53.6233 135.168 53.3746 135.114 53.1216C135.061 52.8686 134.812 52.7071 134.559 52.7608L127.779 54.2019C127.526 54.2556 127.365 54.5043 127.419 54.7574C127.472 55.0104 127.721 55.1719 127.974 55.1181L134.754 53.6771Z" fill="black"/>
<path d="M134.741 60.9234C134.999 60.9008 135.19 60.6736 135.167 60.416C135.145 60.1583 134.917 59.9677 134.66 59.9902L127.755 60.5943C127.498 60.6168 127.307 60.844 127.329 61.1017C127.352 61.3594 127.579 61.55 127.837 61.5274L134.741 60.9234Z" fill="black"/>
<path d="M7.9315 1.92435C7.75182 1.73828 7.75699 1.44178 7.94306 1.2621C8.12913 1.08241 8.42563 1.08759 8.60531 1.27366L13.8757 6.73128C14.0554 6.91735 14.0502 7.21385 13.8641 7.39354C13.6781 7.57322 13.3816 7.56804 13.2019 7.38198L7.9315 1.92435Z" fill="black"/>
<path d="M37.5161 0.808859C37.4109 0.572557 37.5172 0.295707 37.7535 0.190499C37.9898 0.0852901 38.2666 0.191563 38.3718 0.427865L41.2286 6.84434C41.3338 7.08064 41.2276 7.35749 40.9913 7.4627C40.755 7.5679 40.4781 7.46163 40.3729 7.22533L37.5161 0.808859Z" fill="black"/>
<path d="M60.2436 134.354C60.2256 134.612 60.4201 134.835 60.6782 134.853C60.9362 134.871 61.16 134.677 61.178 134.419L61.6354 127.878C61.6535 127.62 61.4589 127.396 61.2009 127.378C60.9429 127.36 60.7191 127.554 60.701 127.813L60.2436 134.354Z" fill="black"/>
<path d="M75.2297 134.349C75.2477 134.607 75.0531 134.831 74.7951 134.849C74.5371 134.867 74.3133 134.673 74.2952 134.415L73.8378 127.874C73.8198 127.616 74.0143 127.392 74.2724 127.374C74.5304 127.356 74.7542 127.55 74.7723 127.808L75.2297 134.349Z" fill="black"/>
<path d="M82.2063 134.258C82.2512 134.513 82.0811 134.756 81.8264 134.801C81.5717 134.845 81.3288 134.675 81.2838 134.421L80.1452 127.963C80.1003 127.709 80.2704 127.466 80.5251 127.421C80.7799 127.376 81.0228 127.546 81.0677 127.801L82.2063 134.258Z" fill="black"/>
<path d="M53.331 134.258C53.2861 134.513 53.4562 134.756 53.7109 134.801C53.9656 134.845 54.2086 134.675 54.2535 134.421L55.3921 127.963C55.437 127.709 55.2669 127.466 55.0122 127.421C54.7574 127.376 54.5145 127.546 54.4696 127.801L53.331 134.258Z" fill="black"/>
<path d="M45.4324 133.968C45.3524 134.214 45.4871 134.478 45.7331 134.558C45.9791 134.638 46.2433 134.504 46.3232 134.258L48.3494 128.022C48.4294 127.776 48.2948 127.511 48.0487 127.431C47.8027 127.351 47.5385 127.486 47.4586 127.732L45.4324 133.968Z" fill="black"/>
<path d="M89.9174 133.968C89.9973 134.214 89.8627 134.478 89.6167 134.558C89.3707 134.638 89.1065 134.504 89.0265 134.258L87.0003 128.022C86.9204 127.776 87.055 127.511 87.301 127.431C87.547 127.351 87.8113 127.486 87.8912 127.732L89.9174 133.968Z" fill="black"/>
<path d="M97.7093 134.073C97.8145 134.309 97.7082 134.586 97.4719 134.691C97.2356 134.797 96.9587 134.69 96.8535 134.454L93.997 128.038C93.8918 127.802 93.9981 127.525 94.2344 127.42C94.4707 127.315 94.7475 127.421 94.8527 127.657L97.7093 134.073Z" fill="black"/>
<path d="M116.671 133.919C116.823 134.128 116.776 134.421 116.567 134.573C116.358 134.725 116.065 134.679 115.913 134.469L110.957 127.649C110.805 127.439 110.851 127.146 111.061 126.994C111.27 126.842 111.563 126.889 111.715 127.098L116.671 133.919Z" fill="black"/>
<path d="M135.162 115.78C135.374 115.929 135.425 116.221 135.277 116.433C135.129 116.644 134.837 116.696 134.625 116.548L127.719 111.712C127.507 111.564 127.455 111.272 127.604 111.06C127.752 110.848 128.044 110.796 128.256 110.945L135.162 115.78Z" fill="black"/>
<path d="M134.014 126.144C134.209 126.314 134.23 126.61 134.06 126.805C133.89 127 133.595 127.021 133.399 126.851L127.673 121.874C127.478 121.704 127.457 121.408 127.627 121.213C127.797 121.018 128.093 120.997 128.288 121.167L134.014 126.144Z" fill="black"/>
<path d="M127.43 132.958C127.61 133.144 127.605 133.44 127.419 133.62C127.233 133.799 126.936 133.794 126.756 133.608L121.486 128.151C121.306 127.965 121.311 127.668 121.498 127.488C121.684 127.309 121.98 127.314 122.16 127.5L127.43 132.958Z" fill="black"/>
<path d="M18.6911 133.919C18.5391 134.128 18.5855 134.421 18.7947 134.573C19.004 134.725 19.2969 134.679 19.4489 134.469L24.4046 127.649C24.5566 127.439 24.5102 127.146 24.3009 126.994C24.0917 126.842 23.7988 126.889 23.6467 127.098L18.6911 133.919Z" fill="black"/>
<path d="M0.199758 115.78C-0.0121284 115.929 -0.0636231 116.221 0.0847411 116.433C0.233105 116.644 0.525146 116.696 0.737032 116.548L7.64279 111.712C7.85468 111.564 7.90617 111.272 7.75781 111.06C7.60945 110.848 7.31741 110.796 7.10552 110.945L0.199758 115.78Z" fill="black"/>
<path d="M1.34778 126.144C1.15256 126.314 1.13188 126.61 1.30158 126.805C1.47128 127 1.7671 127.021 1.96232 126.851L7.68829 121.874C7.88351 121.704 7.9042 121.408 7.7345 121.213C7.5648 121.018 7.26897 120.997 7.07376 121.167L1.34778 126.144Z" fill="black"/>
<path d="M0.748352 96.7436C0.514885 96.8549 0.415896 97.1345 0.527254 97.3679C0.638612 97.6014 0.918148 97.7004 1.15162 97.589L7.99952 94.3227C8.23299 94.2114 8.33198 93.9318 8.22062 93.6984C8.10926 93.4649 7.82973 93.3659 7.59626 93.4773L0.748352 96.7436Z" fill="black"/>
<path d="M0.78401 88.9496C0.539438 89.0338 0.409441 89.3004 0.493654 89.5449C0.577867 89.7895 0.844401 89.9195 1.08897 89.8353L7.85808 87.5045C8.10265 87.4203 8.23265 87.1537 8.14843 86.9092C8.06422 86.6646 7.79769 86.5346 7.55311 86.6188L0.78401 88.9496Z" fill="black"/>
<path d="M0.780083 81.2048C0.52707 81.2586 0.36556 81.5073 0.41934 81.7603C0.473119 82.0133 0.721823 82.1749 0.974836 82.1211L7.75432 80.68C8.00733 80.6263 8.16884 80.3776 8.11506 80.1245C8.06129 79.8715 7.81258 79.71 7.55957 79.7638L0.780083 81.2048Z" fill="black"/>
<path d="M0.792194 73.9586C0.534513 73.9811 0.343898 74.2083 0.366442 74.466C0.388986 74.7236 0.616153 74.9142 0.873834 74.8917L7.7784 74.2876C8.03608 74.2651 8.2267 74.0379 8.20415 73.7802C8.18161 73.5226 7.95444 73.3319 7.69676 73.3545L0.792194 73.9586Z" fill="black"/>
<path d="M134.785 96.7436C135.019 96.8549 135.118 97.1345 135.006 97.3679C134.895 97.6014 134.615 97.7004 134.382 97.589L127.534 94.3227C127.301 94.2114 127.202 93.9318 127.313 93.6984C127.424 93.4649 127.704 93.3659 127.937 93.4773L134.785 96.7436Z" fill="black"/>
<path d="M134.75 88.9496C134.994 89.0338 135.124 89.3004 135.04 89.5449C134.956 89.7895 134.689 89.9195 134.445 89.8353L127.676 87.5045C127.431 87.4203 127.301 87.1537 127.385 86.9092C127.469 86.6646 127.736 86.5346 127.981 86.6188L134.75 88.9496Z" fill="black"/>
<path d="M134.754 81.2048C135.007 81.2586 135.168 81.5073 135.114 81.7603C135.061 82.0133 134.812 82.1749 134.559 82.1211L127.779 80.68C127.526 80.6263 127.365 80.3776 127.419 80.1245C127.472 79.8715 127.721 79.71 127.974 79.7638L134.754 81.2048Z" fill="black"/>
<path d="M134.741 73.9586C134.999 73.9811 135.19 74.2083 135.167 74.466C135.145 74.7236 134.917 74.9142 134.66 74.8917L127.755 74.2876C127.498 74.2651 127.307 74.0379 127.329 73.7802C127.352 73.5226 127.579 73.3319 127.837 73.3545L134.741 73.9586Z" fill="black"/>
<path d="M7.9315 132.958C7.75182 133.144 7.75699 133.44 7.94306 133.62C8.12913 133.799 8.42563 133.794 8.60531 133.608L13.8757 128.151C14.0554 127.965 14.0502 127.668 13.8641 127.488C13.6781 127.309 13.3816 127.314 13.2019 127.5L7.9315 132.958Z" fill="black"/>
<path d="M37.5161 134.073C37.4109 134.309 37.5172 134.586 37.7535 134.691C37.9898 134.797 38.2666 134.69 38.3718 134.454L41.2286 128.038C41.3338 127.801 41.2276 127.524 40.9913 127.419C40.755 127.314 40.4781 127.42 40.3729 127.657L37.5161 134.073Z" fill="black"/>
<path d="M67.3003 0.468355C67.3003 0.20969 67.51 0 67.7687 0C68.0273 0 68.237 0.209689 68.237 0.468354V13.5823C68.237 13.8409 68.0273 14.0506 67.7687 14.0506C67.51 14.0506 67.3003 13.8409 67.3003 13.5823V0.468355Z" fill="black"/>
<path d="M0.793977 67.9114C0.535312 67.9114 0.325622 67.7017 0.325622 67.443C0.325622 67.1844 0.535312 66.9747 0.793977 66.9747H13.9079C14.1666 66.9747 14.3763 67.1844 14.3763 67.443C14.3763 67.7017 14.1666 67.9114 13.9079 67.9114H0.793977Z" fill="black"/>
<path d="M121.629 67.9114C121.371 67.9114 121.161 67.7017 121.161 67.443C121.161 67.1844 121.371 66.9747 121.629 66.9747H134.743C135.002 66.9747 135.212 67.1844 135.212 67.443C135.212 67.7017 135.002 67.9114 134.743 67.9114H121.629Z" fill="black"/>
<path d="M67.3003 121.304C67.3003 121.045 67.51 120.835 67.7687 120.835C68.0273 120.835 68.237 121.045 68.237 121.304V134.418C68.237 134.676 68.0273 134.886 67.7687 134.886C67.51 134.886 67.3003 134.676 67.3003 134.418V121.304Z" fill="black"/>
<path d="M105.874 0.452746C106.003 0.228735 106.29 0.151984 106.514 0.281317C106.738 0.410649 106.814 0.69709 106.685 0.921101L95.4445 20.3902C95.3152 20.6142 95.0288 20.691 94.8047 20.5617C94.5807 20.4323 94.504 20.1459 94.6333 19.9219L105.874 0.452746Z" fill="black"/>
<path d="M134.479 28.3354C134.703 28.2061 134.989 28.2829 135.118 28.5069C135.248 28.7309 135.171 29.0173 134.947 29.1467L115.478 40.3872C115.254 40.5165 114.967 40.4397 114.838 40.2157C114.709 39.9917 114.785 39.7053 115.009 39.576L134.479 28.3354Z" fill="black"/>
<path d="M134.479 106.551C134.703 106.68 134.989 106.603 135.118 106.379C135.248 106.155 135.171 105.869 134.947 105.739L115.478 94.4989C115.254 94.3696 114.967 94.4463 114.838 94.6703C114.709 94.8944 114.785 95.1808 115.009 95.3101L134.479 106.551Z" fill="black"/>
<path d="M0.731229 29.1466C0.507218 29.0173 0.430467 28.7308 0.559799 28.5068C0.689132 28.2828 0.975573 28.2061 1.19958 28.3354L20.6687 39.5759C20.8927 39.7052 20.9695 39.9917 20.8401 40.2157C20.7108 40.4397 20.4244 40.5164 20.2004 40.3871L0.731229 29.1466Z" fill="black"/>
<path d="M0.731229 105.614C0.507218 105.743 0.430467 106.03 0.559799 106.254C0.689132 106.478 0.975573 106.554 1.19958 106.425L20.6687 95.1846C20.8927 95.0553 20.9695 94.7689 20.8401 94.5448C20.7108 94.3208 20.4244 94.2441 20.2004 94.3734L0.731229 105.614Z" fill="black"/>
<path d="M105.874 134.622C106.003 134.846 106.289 134.922 106.513 134.793C106.737 134.664 106.814 134.377 106.685 134.153L95.4444 114.684C95.315 114.46 95.0286 114.383 94.8046 114.513C94.5806 114.642 94.5038 114.928 94.6332 115.152L105.874 134.622Z" fill="black"/>
<path d="M28.6611 0.873961C28.5317 0.64995 28.6085 0.36351 28.8325 0.234177C29.0565 0.104845 29.3429 0.181596 29.4723 0.405607L40.7128 19.8747C40.8421 20.0987 40.7654 20.3852 40.5414 20.5145C40.3173 20.6439 40.0309 20.5671 39.9016 20.3431L28.6611 0.873961Z" fill="black"/>
<path d="M28.6611 134.2C28.5317 134.424 28.6085 134.711 28.8325 134.84C29.0565 134.969 29.3429 134.893 29.4723 134.669L40.7128 115.2C40.8421 114.976 40.7654 114.689 40.5414 114.56C40.3173 114.43 40.0309 114.507 39.9016 114.731L28.6611 134.2Z" fill="black"/>
</g>
</svg>
